<svg width="27" height="29" viewBox="0 0 27 29" fill="none" xmlns="http://www.w3.org/2000/svg">
<g clip-path="url(#clip0_234_2955)" filter="url(#filter0_d_234_2955)">
<path d="M20.4773 1.97992C20.0061 1.5158 18.0986 0.036159 13.8459 0.0163247C13.8459 0.0163247 8.83242 -0.304991 6.39062 2.091C5.03242 3.54287 4.55371 5.67307 4.50175 8.31104C4.4498 10.949 4.38671 15.8917 8.84355 17.2325H8.84726L8.84355 19.2794C8.84355 19.2794 8.81386 20.1085 9.32597 20.2751C9.94199 20.4814 10.3057 19.8506 10.8957 19.1723C11.2186 18.7994 11.6639 18.252 12.0016 17.8355C15.0519 18.1092 17.3936 17.4824 17.6607 17.3912C18.2768 17.177 21.7613 16.701 22.3254 11.7582C22.9117 6.65686 22.0434 3.43576 20.4773 1.97992ZM20.9932 11.3854C20.5145 15.5109 17.6904 15.7727 17.1709 15.9512C16.9482 16.0266 14.8887 16.574 12.3021 16.3955C12.3021 16.3955 10.3725 18.8827 9.77128 19.5293C9.5746 19.7396 9.35937 19.7197 9.36308 19.3032C9.36308 19.0295 9.37792 15.9036 9.37792 15.9036C9.37421 15.9036 9.37421 15.9036 9.37792 15.9036C5.60019 14.785 5.82285 10.5761 5.86367 8.37451C5.90449 6.1729 6.29414 4.36798 7.44453 3.15411C9.51152 1.15085 13.768 1.44836 13.768 1.44836C17.3639 1.46423 19.0857 2.62256 19.4865 3.01131C20.8113 4.22517 21.4867 7.12891 20.9932 11.3854ZM15.835 8.18013C15.8498 8.52128 15.3711 8.54508 15.3562 8.20393C15.3154 7.33122 14.9332 6.90677 14.1465 6.85917C13.8273 6.83933 13.857 6.32761 14.1725 6.34744C15.2078 6.40694 15.783 7.04164 15.835 8.18013ZM16.5883 8.62839C16.6254 6.94644 15.642 5.62944 13.7754 5.48266C13.46 5.45886 13.4934 4.94714 13.8088 4.97094C15.9611 5.13755 17.1078 6.72033 17.067 8.64029C17.0633 8.98144 16.5809 8.96557 16.5883 8.62839ZM18.3324 9.15995C18.3361 9.5011 17.8537 9.50507 17.8537 9.16392C17.8314 5.93092 15.8164 4.16963 13.3709 4.1498C13.0555 4.14583 13.0555 3.63807 13.3709 3.63807C16.1059 3.65791 18.3064 5.67704 18.3324 9.15995ZM17.9131 13.0514V13.0594C17.5123 13.8131 16.7627 14.6461 15.9908 14.3803L15.9834 14.3684C15.2004 14.1344 13.3561 13.1189 12.1908 12.1272C11.5896 11.6194 11.0404 11.0204 10.6174 10.4452C10.2352 9.93349 9.84921 9.32656 9.47441 8.59665C8.68398 7.06941 8.50957 6.38711 8.50957 6.38711C8.26093 5.562 9.03652 4.76069 9.74531 4.33227H9.75273C10.0941 4.14186 10.4207 4.20533 10.6396 4.48698C10.6396 4.48698 11.0998 5.07408 11.2965 5.36366C11.482 5.63341 11.7307 6.06579 11.8605 6.30777C12.0869 6.74016 11.9459 7.18048 11.7232 7.36296L11.2779 7.74378C11.0516 7.93815 11.0812 8.29914 11.0812 8.29914C11.0812 8.29914 11.7418 10.9688 14.2096 11.6432C14.2096 11.6432 14.5473 11.6749 14.7291 11.433L15.0853 10.9569C15.2561 10.7189 15.668 10.5682 16.0725 10.8102C16.618 11.1394 17.3119 11.6511 17.7721 12.1153C18.0318 12.3414 18.0912 12.6865 17.9131 13.0514Z" fill="white"/>
</g>
<defs>
<filter id="filter0_d_234_2955" x="0" y="0" width="27" height="28.3105" filterUnits="userSpaceOnUse" color-interpolation-filters="sRGB">
<feFlood flood-opacity="0" result="BackgroundImageFix"/>
<feColorMatrix in="SourceAlpha" type="matrix" values="0 0 0 0 0 0 0 0 0 0 0 0 0 0 0 0 0 0 127 0" result="hardAlpha"/>
<feOffset dy="4"/>
<feGaussianBlur stdDeviation="2"/>
<feComposite in2="hardAlpha" operator="out"/>
<feColorMatrix type="matrix" values="0 0 0 0 0 0 0 0 0 0 0 0 0 0 0 0 0 0 0.25 0"/>
<feBlend mode="normal" in2="BackgroundImageFix" result="effect1_dropShadow_234_2955"/>
<feBlend mode="normal" in="SourceGraphic" in2="effect1_dropShadow_234_2955" result="shape"/>
</filter>
<clipPath id="clip0_234_2955">
<rect width="19" height="20.3103" fill="white" transform="translate(4)"/>
</clipPath>
</defs>
</svg>
