<svg width="19" height="19" viewBox="0 0 19 19" fill="none" xmlns="http://www.w3.org/2000/svg">
<g clip-path="url(#clip0_234_2949)">
<path d="M5.02106 16.2725L5.33167 16.4261C6.62604 17.1936 8.07561 17.5518 9.52525 17.5518C14.0812 17.5518 17.8087 13.8674 17.8087 9.36429C17.8087 7.21509 16.9286 5.11702 15.3755 3.58183C13.8223 2.04665 11.7514 1.17676 9.52525 1.17676C4.96933 1.17676 1.2417 4.86114 1.2935 9.41549C1.2935 10.9506 1.75945 12.4347 2.536 13.7139L2.74307 14.021L1.91479 17.0401L5.02106 16.2725Z" fill="#00E676"/>
<path d="M16.2564 2.76329C14.4961 0.972301 12.0628 0 9.57778 0C4.29712 0 0.0518047 4.24727 0.103535 9.41564C0.103535 11.0532 0.56948 12.6395 1.34611 14.0723L0 18.9337L5.02186 17.6544C6.4197 18.422 7.9728 18.7802 9.52605 18.7802C14.755 18.7802 19.0003 14.5329 19.0003 9.36458C19.0003 6.85709 18.0166 4.50315 16.2564 2.76329H16.2564ZM9.57778 17.1939C8.17995 17.1939 6.78211 16.8358 5.59134 16.1193L5.28074 15.9658L2.278 16.7334L3.05455 13.8166L2.84748 13.5095C0.56948 9.87633 1.65671 5.06603 5.38427 2.81442C9.11184 0.562884 13.9266 1.63752 16.2046 5.32191C18.4825 9.00629 17.3953 13.7653 13.6678 16.0169C12.477 16.7845 11.0274 17.1938 9.57778 17.1938V17.1939ZM14.1337 11.5139L13.5642 11.258C13.5642 11.258 12.7359 10.8998 12.2182 10.6439C12.1664 10.6439 12.1147 10.5927 12.0628 10.5927C11.9075 10.5927 11.804 10.6439 11.7004 10.6951C11.7004 10.6951 11.6487 10.7462 10.9239 11.565C10.8721 11.6673 10.7685 11.7185 10.665 11.7185H10.6132C10.5615 11.7185 10.4579 11.6673 10.4061 11.6162L10.1473 11.5139C9.57778 11.258 9.06011 10.9509 8.64589 10.5416C8.54236 10.4392 8.38702 10.3369 8.28348 10.2345C7.92107 9.87633 7.55866 9.46692 7.29986 9.00637L7.24805 8.90403C7.19632 8.85283 7.19632 8.80169 7.14452 8.69936C7.14452 8.59702 7.14452 8.49469 7.19632 8.44348C7.19632 8.44348 7.40339 8.18761 7.55866 8.03414C7.66227 7.93173 7.714 7.77826 7.81754 7.67593C7.92107 7.52239 7.97287 7.31771 7.92107 7.16417C7.86934 6.9083 7.24805 5.52665 7.09279 5.21964C6.98918 5.0661 6.88572 5.01497 6.73038 4.96377H6.1609C6.05729 4.96377 5.95383 5.01497 5.85022 5.01497L5.79841 5.0661C5.69488 5.11731 5.59134 5.21964 5.48781 5.27078C5.38427 5.37319 5.33247 5.47545 5.22893 5.57786C4.86652 6.03841 4.65945 6.60129 4.65945 7.16417C4.65945 7.57352 4.76299 7.98293 4.91833 8.34115L4.97013 8.49469C5.43608 9.46692 6.05729 10.3369 6.88572 11.1044L7.09279 11.3091C7.24805 11.4626 7.40339 11.565 7.50693 11.7185C8.59416 12.6396 9.83666 13.3048 11.2345 13.6631C11.3898 13.7142 11.5969 13.7142 11.7522 13.7654H12.2699C12.5288 13.7654 12.8394 13.6631 13.0465 13.5607C13.2018 13.4584 13.3053 13.4584 13.4089 13.356L13.5125 13.2536C13.616 13.1513 13.7196 13.1002 13.8231 12.9978C13.9266 12.8955 14.0302 12.7932 14.082 12.6908C14.1855 12.4861 14.2372 12.2302 14.289 11.9744V11.6162C14.289 11.6162 14.2372 11.565 14.1337 11.5139Z" fill="white"/>
</g>
<defs>
<clipPath id="clip0_234_2949">
<rect width="19" height="19" fill="white"/>
</clipPath>
</defs>
</svg>
